<?xml version="1.0" encoding="UTF-8" standalone="no"?>
<svg
   version="1.0"
   width="1200pt"
   height="1200pt"
   viewBox="0 0 1200 1200"
   preserveAspectRatio="xMidYMid meet"
   id="svg8"
   sodipodi:docname="navigation_marker_opt.svg"
   inkscape:version="1.1.1 (3bf5ae0d25, 2021-09-20)"
   xmlns:inkscape="http://www.inkscape.org/namespaces/inkscape"
   xmlns:sodipodi="http://sodipodi.sourceforge.net/DTD/sodipodi-0.dtd"
   xmlns="http://www.w3.org/2000/svg"
   xmlns:svg="http://www.w3.org/2000/svg">
  <defs
     id="defs12" />
  <sodipodi:namedview
     id="namedview10"
     pagecolor="#ffffff"
     bordercolor="#666666"
     borderopacity="1.0"
     inkscape:pageshadow="2"
     inkscape:pageopacity="0.0"
     inkscape:pagecheckerboard="0"
     inkscape:document-units="pt"
     showgrid="false"
     inkscape:zoom="0.38730469"
     inkscape:cx="402.78366"
     inkscape:cy="921.75492"
     inkscape:window-width="1920"
     inkscape:window-height="1051"
     inkscape:window-x="1600"
     inkscape:window-y="0"
     inkscape:window-maximized="1"
     inkscape:current-layer="svg8"
     fit-margin-top="0"
     fit-margin-left="0"
     fit-margin-right="0"
     fit-margin-bottom="0" />
  <metadata
     id="metadata2">
Created by potrace 1.15, written by Peter Selinger 2001-2017
</metadata>
  <g
     id="g1006"
     transform="translate(0,1.7049503e-5)">
    <g
       transform="matrix(0.08844219,0,0,-0.08660459,245.71619,1151.8351)"
       fill="#000000"
       stroke="none"
       id="g6">
      <path
         d="M 3700,12789 C 3096,12744 2504,12568 2005,12285 1092,11767 406,10894 141,9910 83,9698 46,9498 19,9250 2,9100 2,8618 18,8475 80,7939 231,7481 516,6965 960,6159 1023,6055 1619,5142 2016,4533 2235,4181 2444,3816 3147,2591 3600,1431 3866,182 L 3905,0 h 110 111 l 48,228 c 281,1350 770,2539 1625,3954 169,281 331,536 656,1033 457,699 644,1000 810,1304 133,245 442,879 502,1031 372,943 312,2106 -157,3040 -395,789 -1032,1421 -1806,1795 -642,310 -1405,457 -2104,404 z"
         id="path4"
         style="fill:none;stroke:#000000;stroke-width:1000;stroke-miterlimit:4;stroke-dasharray:none;stroke-opacity:1" />
    </g>
    <path
       style="fill:#ffffff;fill-opacity:1;stroke:none;stroke-width:333.322;stroke-linecap:round;stroke-miterlimit:4;stroke-dasharray:none;stroke-opacity:1"
       d="M 594.65911,997.7433 C 573.77555,937.3566 538.48138,863.03205 498.32128,794.86935 482.38497,767.82097 467.94042,745.17153 425.40478,680.53411 376.81036,606.68973 370.28575,596.28603 345.97154,553.87535 c -31.34766,-54.67896 -42.23628,-80.1997 -50.24252,-117.75842 -3.58325,-16.80967 -3.79143,-19.7065 -3.73929,-52.03279 0.0509,-31.57546 0.34567,-35.71981 3.79795,-53.40207 11.37791,-58.27672 38.25724,-108.93074 80.30562,-151.33572 26.1119,-26.33334 50.076,-43.5757 82.84168,-59.60521 84.85438,-41.512195 185.51501,-42.76648 274.5214,-3.42069 79.67143,35.21921 143.83477,109.58775 165.57095,191.90508 7.84502,29.71001 8.93712,38.76196 8.98695,74.48933 0.0489,35.07845 -0.73348,42.26152 -7.46339,68.51999 -5.73861,22.39074 -10.73609,34.31427 -32.11521,76.62411 -24.05086,47.59727 -34.32965,64.66314 -87.00811,144.45945 C 707.7436,783.93345 678.5038,833.59515 645.65166,902.9241 c -15.94172,33.6423 -43.62651,101.8413 -43.62651,107.47 0,0.7398 -0.46824,1.6345 -1.04053,1.9882 -0.57228,0.3537 -3.41878,-6.2338 -6.32551,-14.639 z m 34.23003,-382.29496 c 39.46463,-6.81096 65.2768,-21.82468 72.99707,-42.45895 2.48099,-6.63103 2.83524,-10.651 2.83524,-32.1736 v -24.59575 h -52.0328 -52.03278 v -6.1031 -6.1031 l 84.55328,-0.401 c 83.9185,-0.39799 84.60195,-0.42368 91.03528,-3.42374 13.44945,-6.2719 23.67022,-20.92895 32.26642,-46.27148 6.87626,-20.27194 8.83748,-32.15862 8.81098,-53.40207 -0.0263,-21.07951 -3.05034,-41.69661 -9.23333,-62.95024 -6.88839,-23.67836 -18.16391,-38.92658 -32.84729,-44.42034 -6.72814,-2.51732 -10.6394,-2.85677 -32.91582,-2.85677 H 717.045 v 25.14485 c 0,13.82968 -0.61544,28.4639 -1.36763,32.5205 -3.3057,17.82766 -17.02352,36.94525 -33.11721,46.15312 -14.18934,8.11831 -17.55711,8.4628 -82.73238,8.4628 -55.13021,0 -59.72085,0.18381 -67.83419,2.71598 -15.29372,4.77316 -27.89503,16.7262 -34.2614,32.49884 -3.17994,7.87826 -3.19583,8.21731 -3.19583,68.19416 v 60.27653 l 4.49203,9.12538 c 9.70801,19.72137 33.66886,33.31518 70.65728,40.08626 13.80401,2.52696 44.51057,2.51747 59.20347,-0.0184 z M 482.89745,476.11385 c 0,-30.42049 1.24961,-38.43626 7.91845,-50.79398 7.69002,-14.25003 23.61658,-26.93527 40.69113,-32.40979 3.97725,-1.2752 23.2883,-1.97418 70.51812,-2.55245 l 65.04099,-0.79635 7.89481,-3.99821 c 9.84566,-4.98618 20.54754,-16.14354 25.38441,-26.46474 l 3.69144,-7.877 0.39458,-61.76907 c 0.3833,-60.0034 0.31196,-61.98988 -2.4957,-69.49401 -3.9224,-10.48355 -12.18267,-20.52624 -22.21826,-27.01255 -16.80877,-10.86404 -36.25831,-14.27184 -81.11548,-14.21246 -51.47167,0.0681 -79.57072,6.5929 -93.50803,21.7131 -8.57424,9.30195 -10.02289,15.84147 -10.87798,49.10566 l -0.7304,28.41264 h 52.90052 52.90053 v 6.16177 6.16179 h -77.90494 c -73.56407,0 -78.38985,0.14985 -86.60721,2.68944 -22.84913,7.06155 -38.2862,24.29815 -44.80499,50.02798 -5.83374,23.02599 -7.38512,36.77286 -6.70037,59.3728 0.91763,30.28624 7.55807,59.29647 17.11568,74.77373 8.09029,13.10114 21.01235,22.80896 33.70464,25.32098 3.12159,0.61782 15.38042,1.19081 27.24184,1.27332 l 21.56622,0.15003 z"
       id="path1723" />
    <g
       id="g898"
       transform="translate(201.40876)">
      <g
         id="g1197"
         transform="matrix(0.88591476,0,0,0.88591476,43.024367,43.831917)">
        <g
           inkscape:label="Layer 1"
           id="layer1"
           transform="matrix(16.662198,0,0,16.662198,-1387.9527,-1157.4935)">
          <path
             style="fill:#1a1a1a;fill-opacity:1;stroke-width:0.264583"
             d="m 107.21217,78.590512 c -1.21276,0.0056 -2.37092,0.109066 -3.38998,0.289388 -3.00202,0.530358 -3.54707,1.640444 -3.54707,3.68763 v 2.703711 h 7.09414 v 0.901237 h -7.09414 -2.662367 c -2.061755,0 -3.867087,1.239233 -4.431771,3.59668 -0.651357,2.70218 -0.680248,4.388385 0,7.209895 0.504277,2.100224 1.708558,3.596677 3.770312,3.596677 h 2.439128 v -3.241143 c 0,-2.341536 2.025948,-4.406965 4.431768,-4.406966 h 7.08587 c 1.97246,0 3.54708,-1.624056 3.54708,-3.604948 V 82.56753 c 0,-1.922552 -1.6219,-3.366764 -3.54708,-3.68763 -1.21866,-0.202863 -2.48314,-0.295023 -3.69589,-0.289388 z m -3.83646,2.174544 c 0.73277,0 1.33118,0.608184 1.33118,1.35599 0,0.745155 -0.59841,1.347721 -1.33118,1.347721 -0.7354,0 -1.33119,-0.602566 -1.33119,-1.347721 0,-0.747806 0.59579,-1.35599 1.33119,-1.35599 z"
             id="path1948" />
          <path
             style="fill:#000000;fill-opacity:1;stroke-width:0.264583"
             d="m 115.33984,86.172478 v 3.150195 c 0,2.442304 -2.07061,4.497917 -4.43178,4.497917 h -7.08587 c -1.94094,0 -3.54707,1.661182 -3.54707,3.604948 v 6.755142 c 0,1.92255 1.6718,3.05338 3.54707,3.60495 2.24561,0.66029 4.39903,0.77963 7.08587,0 1.78598,-0.5171 3.54708,-1.55777 3.54708,-3.60495 v -2.70371 h -7.08588 v -0.90124 h 7.08588 3.54707 c 2.06175,0 2.83005,-1.438115 3.54706,-3.596677 0.74066,-2.222205 0.70915,-4.359215 0,-7.209895 -0.50953,-2.05249 -1.48269,-3.59668 -3.54706,-3.59668 z m -3.98529,17.106962 c 0.7354,0 1.33118,0.60257 1.33118,1.34772 0,0.74781 -0.59578,1.35599 -1.33118,1.35599 -0.73278,0 -1.33119,-0.60818 -1.33119,-1.35599 0,-0.74515 0.59841,-1.34772 1.33119,-1.34772 z"
             id="path1950" />
        </g>
      </g>
      <path
         style="fill:#ffffff;fill-opacity:1;stroke:none;stroke-width:243.428;stroke-linecap:round;stroke-miterlimit:4;stroke-dasharray:none;stroke-opacity:1"
         d="m 439.62878,328.70206 c -12.25604,-7.47295 -15.56897,-25.99438 -6.56387,-36.69633 9.47086,-11.25547 22.34886,-13.15478 33.88846,-4.99802 19.46946,13.76197 9.60348,45.25821 -14.17682,45.25821 -4.02971,0 -9.92253,-1.59732 -13.14777,-3.56386 z"
         id="path1534"
         transform="scale(0.75)" />
      <path
         style="fill:#ffffff;fill-opacity:1;stroke:none;stroke-width:444.429;stroke-linecap:round;stroke-miterlimit:4;stroke-dasharray:none;stroke-opacity:1"
         d="m 598.38845,772.92489 c -17.64592,-8.69909 -17.6966,-35.59719 -0.0841,-44.63959 8.65571,-4.44392 15.43292,-4.39544 22.91081,0.16389 17.22399,10.50159 17.22399,33.33522 0,43.83681 -7.15807,4.36434 -14.83394,4.57918 -22.82671,0.63889 z"
         id="path1684"
         transform="scale(0.75)" />
      <path
         style="fill:#ffffff;fill-opacity:1;stroke:none;stroke-width:55.5537;stroke-linecap:round;stroke-miterlimit:4;stroke-dasharray:none;stroke-opacity:1"
         d="m 374.21823,630.61231 c 0.081,-29.55556 0.095,-30.37901 0.57381,-33.71862 2.40268,-16.75937 8.65615,-30.92068 19.58105,-44.34237 2.2013,-2.70438 8.59539,-9.15431 11.39138,-11.49085 11.7311,-9.80338 24.9274,-16.21821 39.36692,-19.13654 7.62362,-1.5408 2.45603,-1.42327 70.40401,-1.60115 67.18369,-0.17588 93.58004,-0.45972 96.99095,-1.04297 8.07325,-1.38047 16.70916,-4.56587 23.60351,-8.7063 0.95053,-0.57084 1.80526,-1.08041 1.8994,-1.13236 0.0941,-0.052 0.17116,4.2308 0.17116,9.51723 v 9.61169 l -2.22509,1.03888 c -6.57872,3.07157 -13.99093,5.45208 -20.82452,6.68805 -7.29527,1.31946 -1.29916,1.22215 -84.32507,1.36849 l -76.22347,0.13436 -3.17373,0.51743 c -4.09029,0.66686 -9.28121,1.99666 -13.02947,3.33787 -6.41658,2.296 -14.29152,6.72803 -19.92119,11.21167 -2.95094,2.35022 -9.10629,8.52766 -11.46523,11.50638 -9.2865,11.72636 -14.55773,25.42001 -15.5053,40.27976 -0.13576,2.12893 -0.23319,14.61815 -0.23366,29.95309 l -8.1e-4,26.30166 h -8.56885 -8.56885 z"
         id="path1775"
         transform="scale(0.75)" />
    </g>
  </g>
</svg>
